<svg width="28" height="28" viewBox="0 0 28 28" fill="none" xmlns="http://www.w3.org/2000/svg">
<path d="M4.66742 18.6667V15.89C4.66742 13.4167 3.46575 12.25 3.50075 9.33337C3.53575 6.16004 5.23908 2.33337 8.75075 2.33337C10.9324 2.33337 11.6674 4.43337 11.6674 6.41671C11.6674 10.045 9.33408 13.02 9.33408 16.5434V18.6667C9.33408 19.2855 9.08825 19.879 8.65067 20.3166C8.21308 20.7542 7.61959 21 7.00075 21C6.38191 21 5.78842 20.7542 5.35083 20.3166C4.91325 19.879 4.66742 19.2855 4.66742 18.6667Z" stroke="#E67E22" stroke-width="2.33333" stroke-linecap="round" stroke-linejoin="round"/>
<path d="M23.332 23.3333V20.5567C23.332 18.0833 24.5337 16.9167 24.4987 14C24.4637 10.8267 22.7604 7 19.2487 7C17.067 7 16.332 9.1 16.332 11.0833C16.332 14.7117 18.6654 17.6867 18.6654 21.21V23.3333C18.6654 23.9522 18.9112 24.5457 19.3488 24.9832C19.7864 25.4208 20.3799 25.6667 20.9987 25.6667C21.6175 25.6667 22.211 25.4208 22.6486 24.9832C23.0862 24.5457 23.332 23.9522 23.332 23.3333Z" stroke="#E67E22" stroke-width="2.33333" stroke-linecap="round" stroke-linejoin="round"/>
<path d="M18.668 19.8334H23.3346" stroke="#E67E22" stroke-width="2.33333" stroke-linecap="round" stroke-linejoin="round"/>
<path d="M4.66797 15.1666H9.33464" stroke="#E67E22" stroke-width="2.33333" stroke-linecap="round" stroke-linejoin="round"/>
</svg>
